<?xml version="1.0" encoding="UTF-8"?>
<svg version="1.1" xmlns="http://www.w3.org/2000/svg" width="512" height="512">
<path d="M0 0 C4.74688929 1.99137977 9.1369571 4.51461775 13.5625 7.125 C14.84482539 7.86001339 16.12837653 8.59289204 17.41308594 9.32373047 C20.02836278 10.81493897 22.63703231 12.31678069 25.24072266 13.828125 C30.7056993 16.99511533 36.23116676 20.05320905 41.75 23.125 C43.79478534 24.27121804 45.83905756 25.41835196 47.8828125 26.56640625 C52.02143242 28.89031891 56.16204536 31.21060852 60.3046875 33.52734375 C70.34145069 39.14077198 80.36939642 44.76869859 90.375 50.4375 C99.87122288 55.81682999 109.40706599 61.12264816 118.95263672 66.41381836 C127.0829493 70.92440767 135.18483441 75.48270209 143.27050781 80.07275391 C148.51318456 83.04421191 153.77062858 85.98701922 159.046875 88.8984375 C159.64661133 89.22978699 160.24634766 89.56113647 160.86425781 89.90252686 C163.77496078 91.51040811 166.68744663 93.11474216 169.60351562 94.71289062 C190.02327201 105.98024258 190.02327201 105.98024258 192.25 110.5 C193.11816525 114.55143783 193.15977611 117.01326963 192 121 C187.88958791 127.23024725 182.34046579 129.89472758 175.8125 133.25 C173.66228666 134.38321612 171.51255205 135.51734103 169.36328125 136.65234375 C168.2954541 137.21163574 167.22762695 137.77092773 166.12744141 138.34716797 C161.54689887 140.76795431 157.02089903 143.28253624 152.5 145.8125 C151.35301636 146.45203613 151.35301636 146.45203613 150.18286133 147.10449219 C148.45450721 148.06834703 146.7271248 149.03394408 145 150 C152.53213503 154.8507322 160.36530239 159.12230073 168.22485352 163.41333008 C188.42066017 174.45318647 188.42066017 174.45318647 192 180 C193.03689678 183.99945902 193.25753726 186.2703111 191.875 190.1875 C188.52057935 195.21913097 183.78318885 197.82332777 178.5546875 200.6796875 C177.94416534 201.01493439 177.33364319 201.35018127 176.70462036 201.69558716 C174.76385191 202.75991943 172.81953009 203.81755892 170.875 204.875 C169.59350904 205.57638283 168.31225701 206.27820241 167.03125 206.98046875 C163.94099877 208.67316671 160.84786635 210.36050151 157.7532959 212.04528809 C155.02469652 213.53107627 152.29761137 215.01963885 149.5703125 216.5078125 C148.04690046 217.33858836 146.52347382 218.16933745 145 219 C148.41693658 221.87284585 151.80918624 224.12403098 155.75390625 226.20703125 C156.85669922 226.79419922 157.95949219 227.38136719 159.09570312 227.98632812 C160.81176758 228.8902832 160.81176758 228.8902832 162.5625 229.8125 C169.27009098 233.36175616 175.97067763 236.9245577 182.58984375 240.63671875 C184.00898071 241.42695435 184.00898071 241.42695435 185.45678711 242.2331543 C189.448776 245.00650781 191.63560356 247.6881728 192.9375 252.375 C193.01338104 256.77610052 192.05808037 259.12031672 190 263 C187.35107422 265.16333008 187.35107422 265.16333008 184.1796875 266.95703125 C183.32127762 267.45261284 183.32127762 267.45261284 182.44552612 267.95820618 C180.64111073 268.99269654 178.82247347 269.99773136 177 271 C175.8749707 271.63470215 174.74994141 272.2694043 173.59082031 272.92333984 C170.71725373 274.53202473 167.83443448 276.12155532 164.94256592 277.697052 C161.76493719 279.42864038 158.59368672 281.17184867 155.421875 282.9140625 C154.78700165 283.2624971 154.1521283 283.6109317 153.49801636 283.96992493 C147.76381011 287.12081808 142.06429681 290.33124923 136.375 293.5625 C128.10880817 298.25492943 119.81368908 302.89224351 111.5 307.5 C102.16151176 312.67688561 92.84809771 317.89508453 83.55810547 323.15844727 C73.44481683 328.88662934 63.30133416 334.56051503 53.15722656 340.23388672 C48.9761576 342.57272471 44.79602457 344.91322732 40.61694336 347.25561523 C38.54903102 348.41291402 36.47954386 349.56740359 34.40844727 350.71899414 C28.9731086 353.74595167 23.57808252 356.82570067 18.22265625 359.9921875 C17.10761719 360.641875 15.99257813 361.2915625 14.84375 361.9609375 C12.717544 363.20122433 10.60088914 364.45809143 8.49609375 365.734375 C2.30198544 369.31869901 -2.82608057 371.76903748 -10 370 C-14.79791089 367.98392631 -19.2154782 365.4478537 -23.6875 362.8125 C-24.97653816 362.07421779 -26.26675951 361.33799788 -27.55810547 360.60375977 C-30.16004655 359.12028335 -32.75504582 357.62573207 -35.34423828 356.12011719 C-39.49938086 353.70516484 -43.68393656 351.34381809 -47.87231445 348.98706055 C-50.65018208 347.42332433 -53.42291849 345.85076014 -56.1953125 344.27734375 C-62.60899174 340.64660519 -69.0538374 337.0726543 -75.5 333.5 C-84.7916376 328.34972922 -94.05566278 323.15419122 -103.296875 317.9140625 C-110.67560171 313.73550179 -118.08346823 309.61103045 -125.5 305.5 C-134.82985646 300.3278277 -144.1365769 295.11767909 -153.41552734 289.85473633 C-159.54343459 286.38090352 -165.68904162 282.94047383 -171.84472656 279.51611328 C-176.00878016 277.19483005 -180.16342524 274.85718033 -184.31445312 272.51269531 C-185.97652868 271.57649348 -187.64136928 270.6451596 -189.31054688 269.72167969 C-191.17678109 268.68715614 -193.02767912 267.63030457 -194.875 266.5625 C-195.82117188 266.02753906 -196.76734375 265.49257813 -197.7421875 264.94140625 C-200.77398012 262.33448422 -201.73977203 259.75556308 -203 256 C-202.90622226 250.56089103 -201.62879728 247.9523843 -198 244 C-195.32128906 242.19824219 -195.32128906 242.19824219 -192.265625 240.546875 C-190.5782019 239.62370483 -190.5782019 239.62370483 -188.85668945 238.68188477 C-187.65454566 238.03776261 -186.45231433 237.39380379 -185.25 236.75 C-184.02828032 236.08567399 -182.8071718 235.42022282 -181.58666992 234.75366211 C-179.17455215 233.43734205 -176.75996 232.1257609 -174.34326172 230.81787109 C-169.97491918 228.44262072 -165.63947159 226.01207498 -161.3125 223.5625 C-160.05863469 222.85539614 -158.80473364 222.14835566 -157.55078125 221.44140625 C-156.70902344 220.96574219 -155.86726563 220.49007812 -155 220 C-157.90108701 217.71470379 -160.85273047 215.90938975 -164.11328125 214.1796875 C-165.1074707 213.64859375 -166.10166016 213.1175 -167.12597656 212.5703125 C-168.70330566 211.73113281 -168.70330566 211.73113281 -170.3125 210.875 C-184.87658129 203.0398653 -184.87658129 203.0398653 -191.75 199 C-192.87921875 198.34 -194.0084375 197.68 -195.171875 197 C-199.31752677 194.06826836 -201.59720708 191.47690736 -202.9375 186.5625 C-203.01100421 182.37275996 -202.31349744 180.47024616 -200 177 C-196.57470882 174.00552555 -193.01145379 171.75460387 -189.02734375 169.57421875 C-187.87943359 168.94193359 -186.73152344 168.30964844 -185.54882812 167.65820312 C-184.34519566 167.00103904 -183.1414191 166.34413883 -181.9375 165.6875 C-167.65023771 158.93620492 -167.65023771 158.93620492 -155 150 C-155.62753174 149.66379639 -156.25506348 149.32759277 -156.90161133 148.98120117 C-167.90064336 143.07945259 -178.89066322 137.1559572 -189.75 131 C-190.52835205 130.56840576 -191.3067041 130.13681152 -192.10864258 129.69213867 C-197.46621768 126.62033476 -201.2139725 123.829699 -202.9375 117.625 C-203.01338104 113.22389948 -202.05808037 110.87968328 -200 107 C-197.35107422 104.83666992 -197.35107422 104.83666992 -194.1796875 103.04296875 C-193.60741425 102.71258102 -193.03514099 102.3821933 -192.44552612 102.04179382 C-190.64111073 101.00730346 -188.82247347 100.00226864 -187 99 C-185.31245605 98.04794678 -185.31245605 98.04794678 -183.59082031 97.07666016 C-180.71725373 95.46797527 -177.83443448 93.87844468 -174.94256592 92.302948 C-171.76493719 90.57135962 -168.59368672 88.82815133 -165.421875 87.0859375 C-164.46956497 86.5632856 -164.46956497 86.5632856 -163.49801636 86.03007507 C-157.76381011 82.87918192 -152.06429681 79.66875077 -146.375 76.4375 C-138.10880868 71.74507087 -129.81371582 67.10770763 -121.5 62.5 C-113.1458873 57.86939081 -104.80881181 53.21142122 -96.5 48.5 C-88.19118718 43.78857821 -79.85405883 39.13070762 -71.5 34.5 C-64.0493976 30.3696257 -56.60573561 26.22848928 -49.19213867 22.03198242 C-47.32661298 20.97610684 -45.45960472 19.92284604 -43.59106445 18.87231445 C-38.4813371 15.99533421 -33.40880881 13.06644441 -28.36328125 10.078125 C-26.69289795 9.1046814 -26.69289795 9.1046814 -24.98876953 8.11157227 C-22.84798344 6.86386223 -20.71670415 5.59963856 -18.59716797 4.31616211 C-12.37186965 0.71887815 -7.21045248 -1.78090687 0 0 Z " fill="#1A9FFF" transform="translate(261,71)"/>
<path d="M0 0 C2.09863281 0.87939453 2.09863281 0.87939453 4.203125 2.1328125 C5.00540527 2.60195068 5.80768555 3.07108887 6.63427734 3.55444336 C7.92906006 4.3318689 7.92906006 4.3318689 9.25 5.125 C11.14247817 6.23435506 13.03574068 7.34237292 14.9296875 8.44921875 C15.92194336 9.0323584 16.91419922 9.61549805 17.93652344 10.21630859 C23.04500932 13.19069478 28.21087491 16.0611664 33.375 18.9375 C41.57597302 23.51810977 49.7638471 28.12081991 57.9375 32.75 C65.28240305 36.90814687 72.64202065 41.03748793 80.02441406 45.12866211 C94.9706525 53.41393306 109.86930658 61.78516786 124.75 70.1875 C125.70801514 70.72802002 126.66603027 71.26854004 127.65307617 71.82543945 C128.54615479 72.33034912 129.4392334 72.83525879 130.359375 73.35546875 C131.13764648 73.79528076 131.91591797 74.23509277 132.71777344 74.68823242 C134.38120069 75.64432941 136.02749409 76.63041996 137.6628418 77.63378906 C141.5037975 79.87906099 144.68028393 79.7763545 149 79 C153.23400014 77.43941208 157.09267533 75.23404212 161 73 C161.7110791 72.5973291 162.4221582 72.1946582 163.15478516 71.77978516 C167.4581939 69.34037643 171.74881771 66.87941109 176.03515625 64.41015625 C182.48612057 60.70580281 188.9909983 57.10110553 195.5 53.5 C203.53149928 49.05341936 211.5407046 44.57461936 219.5 40 C227.41926945 35.4493061 235.3857798 30.98919568 243.375 26.5625 C252.12031061 21.71585842 260.85508615 16.85196037 269.5625 11.9375 C270.47112793 11.42582275 271.37975586 10.91414551 272.31591797 10.38696289 C273.1823291 9.89703857 274.04874023 9.40711426 274.94140625 8.90234375 C275.77945801 8.4316748 276.61750977 7.96100586 277.48095703 7.47607422 C279.22524852 6.45397823 280.93884963 5.37835054 282.62451172 4.26220703 C289.02922542 0.06926251 289.02922542 0.06926251 293.44921875 -0.24609375 C298.60218843 1.56226415 303.12258557 4.16222702 307.8125 6.9375 C309.8561903 8.12469783 311.90046891 9.31088345 313.9453125 10.49609375 C314.96012695 11.0876123 315.97494141 11.67913086 317.02050781 12.28857422 C319.78102436 13.87421999 322.56186651 15.40554141 325.3671875 16.91015625 C326.18469482 17.35045166 327.00220215 17.79074707 327.84448242 18.24438477 C329.36393329 19.05865337 330.88733798 19.86560303 332.4152832 20.66381836 C336.55076314 22.90144594 339.38503387 24.95395788 342 29 C343.57624289 34.6744744 342.72808578 37.85729084 340 43 C337.35107422 45.16333008 337.35107422 45.16333008 334.1796875 46.95703125 C333.60741425 47.28741898 333.03514099 47.6178067 332.44552612 47.95820618 C330.64111073 48.99269654 328.82247347 49.99773136 327 51 C325.8749707 51.63470215 324.74994141 52.2694043 323.59082031 52.92333984 C320.71725373 54.53202473 317.83443448 56.12155532 314.94256592 57.697052 C311.76493719 59.42864038 308.59368672 61.17184867 305.421875 62.9140625 C304.78700165 63.2624971 304.1521283 63.6109317 303.49801636 63.96992493 C297.76381011 67.12081808 292.06429681 70.33124923 286.375 73.5625 C278.10880817 78.25492943 269.81368908 82.89224351 261.5 87.5 C252.16151176 92.67688561 242.84809771 97.89508453 233.55810547 103.15844727 C223.44481683 108.88662934 213.30133416 114.56051503 203.15722656 120.23388672 C198.9761576 122.57272471 194.79602457 124.91322732 190.61694336 127.25561523 C188.54903102 128.41291402 186.47954386 129.56740359 184.40844727 130.71899414 C178.9731086 133.74595167 173.57808252 136.82570067 168.22265625 139.9921875 C167.10761719 140.641875 165.99257813 141.2915625 164.84375 141.9609375 C162.717544 143.20122433 160.60088914 144.45809143 158.49609375 145.734375 C152.30198544 149.31869901 147.17391943 151.76903748 140 150 C135.20208911 147.98392631 130.7845218 145.4478537 126.3125 142.8125 C125.02346184 142.07421779 123.73324049 141.33799788 122.44189453 140.60375977 C119.83995345 139.12028335 117.24495418 137.62573207 114.65576172 136.12011719 C110.50061914 133.70516484 106.31606344 131.34381809 102.12768555 128.98706055 C99.34981792 127.42332433 96.57708151 125.85076014 93.8046875 124.27734375 C87.39100826 120.64660519 80.9461626 117.0726543 74.5 113.5 C65.2083624 108.34972922 55.94433722 103.15419122 46.703125 97.9140625 C39.32439829 93.73550179 31.91653177 89.61103045 24.5 85.5 C15.17014354 80.3278277 5.8634231 75.11767909 -3.41552734 69.85473633 C-9.54343459 66.38090352 -15.68904162 62.94047383 -21.84472656 59.51611328 C-26.00878016 57.19483005 -30.16342524 54.85718033 -34.31445312 52.51269531 C-35.97652868 51.57649348 -37.64136928 50.6451596 -39.31054688 49.72167969 C-41.17678109 48.68715614 -43.02767912 47.63030457 -44.875 46.5625 C-45.82117188 46.02753906 -46.76734375 45.49257813 -47.7421875 44.94140625 C-50.77398012 42.33448422 -51.73977203 39.75556308 -53 36 C-52.90622226 30.56089103 -51.62879728 27.9523843 -48 24 C-45.32128906 22.19824219 -45.32128906 22.19824219 -42.265625 20.546875 C-40.57880615 19.62370483 -40.57880615 19.62370483 -38.85791016 18.68188477 C-37.65547308 18.03755046 -36.45283266 17.39359552 -35.25 16.75 C-34.02468737 16.08554981 -32.79991687 15.4200989 -31.57568359 14.75366211 C-29.75029462 13.76013456 -27.92453942 12.76738359 -26.09640503 11.77891541 C-22.64486309 9.91025735 -19.22550351 7.99826414 -15.8359375 6.01953125 C-15.10858398 5.59639648 -14.38123047 5.17326172 -13.63183594 4.73730469 C-12.33621282 3.97884502 -11.0448346 3.21306496 -9.75878906 2.43847656 C-6.27774628 0.42022291 -3.9982508 -0.3471626 0 0 Z " fill="#426EFF" transform="translate(111,291)"/>
<path d="M0 0 C1.31668374 0.67267702 2.61675893 1.37812403 3.90625 2.1015625 C4.78120117 2.57126465 5.65615234 3.0409668 6.55761719 3.52490234 C9.7738595 5.27171804 12.96587805 7.05794983 16.15625 8.8515625 C17.35168896 9.52037546 18.54733096 10.18882561 19.74316406 10.85693359 C22.22666267 12.24475649 24.70928299 13.63413305 27.19140625 15.02441406 C31.87958829 17.64829158 36.57945969 20.25091548 41.27880859 22.85473633 C51.6625301 28.6095428 62.01985354 34.408559 72.34912109 40.26049805 C79.31551017 44.20643146 86.29465424 48.12902317 93.28125 52.0390625 C94.30951904 52.61470947 95.33778809 53.19035645 96.3972168 53.78344727 C101.82643161 56.82179188 107.25792345 59.85601339 112.69140625 62.88671875 C113.80531738 63.50877197 114.91922852 64.1308252 116.06689453 64.77172852 C118.18040685 65.95193823 120.29461372 67.13090541 122.40966797 68.30834961 C123.86010498 69.11864624 123.86010498 69.11864624 125.33984375 69.9453125 C126.27554199 70.46480469 127.21124023 70.98429687 128.17529297 71.51953125 C129.99300842 72.57252572 131.78016113 73.6801609 133.53173828 74.83984375 C139.0589546 78.47709494 143.24588617 80.46704436 149.90625 79.1015625 C152.64561901 78.16645605 155.0386683 76.875413 157.53125 75.4140625 C158.24796875 75.01469482 158.9646875 74.61532715 159.703125 74.20385742 C162.11468252 72.85425378 164.50985154 71.47787874 166.90625 70.1015625 C168.68389042 69.09977632 170.46257231 68.09983639 172.2421875 67.1015625 C176.10735467 64.92934665 179.96602294 62.74614444 183.8203125 60.5546875 C189.96000279 57.06609211 196.11823429 53.61124648 202.28125 50.1640625 C203.83875977 49.29261597 203.83875977 49.29261597 205.42773438 48.40356445 C207.53475483 47.22479922 209.64185131 46.04616986 211.74902344 44.86767578 C216.96918711 41.94758113 222.18763679 39.02442684 227.40625 36.1015625 C229.48957501 34.93488096 231.57290834 33.7682143 233.65625 32.6015625 C234.6875 32.0240625 235.71875 31.4465625 236.78125 30.8515625 C239.90625 29.1015625 243.03125 27.3515625 246.15625 25.6015625 C247.18911133 25.0230957 248.22197266 24.44462891 249.28613281 23.84863281 C251.35296777 22.69133461 253.42002227 21.53442841 255.48730469 20.37792969 C260.36449598 17.64885993 265.23935682 14.9158812 270.10644531 12.16882324 C271.83930157 11.19101445 273.57296657 10.21463933 275.30664062 9.23828125 C277.48904062 8.00901105 279.67010032 6.77735736 281.84960938 5.54296875 C282.83251953 4.98996094 283.81542969 4.43695313 284.828125 3.8671875 C285.69018555 3.38024414 286.55224609 2.89330078 287.44042969 2.39160156 C288.25415039 1.96588867 289.06787109 1.54017578 289.90625 1.1015625 C290.71642578 0.658125 291.52660156 0.2146875 292.36132812 -0.2421875 C296.00517393 -1.18181312 297.48566829 -0.02088766 300.703125 1.8359375 C301.81937256 2.46838379 302.93562012 3.10083008 304.08569336 3.75244141 C305.27626688 4.45148809 306.46644532 5.15120803 307.65625 5.8515625 C308.87232165 6.55137097 310.08920484 7.24977106 311.30688477 7.94677734 C313.72709615 9.33617702 316.1407151 10.73608193 318.54931641 12.14550781 C321.46063816 13.84190853 324.38566021 15.50769453 327.32421875 17.15625 C328.8313104 18.01199802 330.33787195 18.86868069 331.84375 19.7265625 C332.85163574 20.29068848 332.85163574 20.29068848 333.87988281 20.86621094 C339.02268046 23.86146671 342.2576902 26.7235099 343.84375 32.5390625 C343.91725421 36.72880254 343.21974744 38.63131634 340.90625 42.1015625 C337.36108899 45.21719635 333.63478304 47.49584819 329.49609375 49.74609375 C328.88794327 50.07896896 328.27979279 50.41184418 327.6532135 50.75480652 C325.71918499 51.8124757 323.78171033 52.86361779 321.84375 53.9140625 C319.3098739 55.29315467 316.7776765 56.67529696 314.24609375 58.05859375 C313.31523453 58.56581467 313.31523453 58.56581467 312.36557007 59.08328247 C308.33403275 61.28930293 304.36360534 63.58155906 300.41015625 65.92578125 C296.33008979 68.32944681 292.27113823 70.25785694 287.90625 72.1015625 C283.73909702 74.29685481 279.63751178 76.60732159 275.53125 78.9140625 C274.32910612 79.58615548 273.12679192 80.25794389 271.92431641 80.92944336 C268.84308632 82.65115376 265.76412996 84.3768867 262.68579102 86.10375977 C259.94283806 87.6417552 257.19791964 89.17623189 254.453125 90.7109375 C250.33458989 93.01453043 246.21748474 95.32064817 242.1015625 97.62890625 C237.91090141 99.97893984 233.7180729 102.32503653 229.5234375 104.66796875 C218.99239098 110.55239649 208.48424682 116.47148913 198.02319336 122.47949219 C189.50379009 127.35883837 180.91518847 132.11281548 172.31689453 136.85131836 C166.44460066 140.09648719 160.64299608 143.41251515 154.9362793 146.94189453 C150.4532318 149.50286574 145.93477479 149.89385626 140.90625 149.1015625 C136.84215366 147.44235358 133.16289393 145.23582987 129.40625 142.9765625 C127.17999613 141.68306242 124.95342461 140.39010892 122.7265625 139.09765625 C121.02935059 138.09968018 121.02935059 138.09968018 119.29785156 137.08154297 C114.00205295 133.98991277 108.64055448 131.01874167 103.28125 128.0390625 C94.40935091 123.07766704 85.55889541 118.07917089 76.71484375 113.06835938 C69.25944749 108.85111402 61.77367205 104.69009836 54.28125 100.5390625 C40.98636383 93.16921439 27.75224665 85.69795976 14.6328125 78.01953125 C13.77558594 77.51905273 12.91835937 77.01857422 12.03515625 76.50292969 C10.42356813 75.56074147 8.81401898 74.6150524 7.20703125 73.66503906 C3.51993235 71.50877386 -0.10066085 69.62867293 -4.06103516 68.00708008 C-9.043258 65.78763923 -13.79996174 63.07110312 -18.59375 60.4765625 C-19.74762207 59.85209229 -20.90149414 59.22762207 -22.09033203 58.58422852 C-28.42320575 55.1396677 -34.74970437 51.68609313 -40.96875 48.0390625 C-42.07992187 47.38808594 -43.19109375 46.73710937 -44.3359375 46.06640625 C-48.43848304 43.14348783 -50.70181608 40.53865356 -52.03125 35.6640625 C-52.10475421 31.47432246 -51.40724744 29.57180866 -49.09375 26.1015625 C-45.68787893 23.12655686 -42.15057414 20.88001766 -38.19140625 18.7109375 C-37.05993164 18.08687012 -35.92845703 17.46280273 -34.76269531 16.81982422 C-33.5608543 16.16317401 -32.35870043 15.50709609 -31.15625 14.8515625 C-28.71376802 13.51758159 -26.27228621 12.18180061 -23.83203125 10.84375 C-23.23937469 10.5191983 -22.64671814 10.19464661 -22.03610229 9.86026001 C-18.78337607 8.06843493 -15.59036644 6.21499304 -12.44921875 4.234375 C-11.81943115 3.84282227 -11.18964355 3.45126953 -10.54077148 3.04785156 C-8.97840422 2.06156649 -7.4335775 1.04763934 -5.890625 0.03125 C-3.09375 -0.8984375 -3.09375 -0.8984375 0 0 Z " fill="#DAEFFF" transform="translate(110.09375,221.8984375)"/>
<path d="M0 0 C3.70390021 2.02666238 5.65363011 3.48044516 8 7 C8.87615258 10.93105625 8.89815557 14.50981263 6.78515625 18.015625 C4.95445578 20.13493001 3.02276077 22.06255778 1 24 C0.11183594 24.89847656 -0.77632812 25.79695313 -1.69140625 26.72265625 C-4.10919311 29.16795704 -6.54634514 31.59077752 -9 34 C-4.89535458 38.94662397 -0.56083378 43.50204605 4.046875 47.984375 C6.99165286 51.02338575 8.3144213 53.12058441 8.4375 57.3125 C8.3744412 60.82659505 7.8619303 62.77477223 5.625 65.5 C1.97210381 68.97894875 -0.50610678 69.6841905 -5.46875 69.56640625 C-10.22151447 68.50290185 -13.07332687 65.07757897 -16.37158203 61.66650391 C-18.3181965 59.67436142 -20.31203629 57.73503926 -22.30859375 55.79296875 C-23.85282293 54.27993117 -25.39578433 52.76559864 -26.9375 51.25 C-28.05705078 50.1508728 -28.05705078 50.1508728 -29.19921875 49.02954102 C-37.4801463 40.75522461 -37.4801463 40.75522461 -38.625 34.6875 C-37.15589435 26.01977669 -27.28537406 19.12882279 -21.18237305 13.05200195 C-19.66921334 11.54427904 -18.16157115 10.03118241 -16.65429688 8.51757812 C-15.69042526 7.55436608 -14.72624416 6.5914636 -13.76171875 5.62890625 C-12.4617395 4.3306189 -12.4617395 4.3306189 -11.13549805 3.00610352 C-7.48785681 -0.4205191 -4.95882175 -0.41323515 0 0 Z " fill="#E7F4FF" transform="translate(213,152)"/>
<path d="M0 0 C2.71606466 1.7009111 4.78566824 3.82128724 6.96875 6.15234375 C7.57513306 6.76767471 8.18151611 7.38300568 8.80627441 8.01698303 C10.72381309 9.9724233 12.61137938 11.95415913 14.5 13.9375 C15.79766462 15.26674782 17.09712834 16.59424179 18.3984375 17.91992188 C28.80108728 28.57919488 28.80108728 28.57919488 29.4375 33.125 C28.38258953 42.4684927 18.71703833 49.58552 12.375 55.875 C11.42414138 56.83299818 10.47361834 57.79132957 9.5234375 58.75 C8.6159375 59.65492188 7.7084375 60.55984375 6.7734375 61.4921875 C5.54246338 62.71977783 5.54246338 62.71977783 4.28662109 63.97216797 C0.3751802 67.44093031 -2.64157879 68.50398156 -7.96484375 68.39453125 C-11.61727597 67.68647817 -13.43783808 65.62465368 -16 63 C-17.82391398 59.35217203 -17.9264644 55.95251371 -17 52 C-14.42814389 48.22367734 -11.28259891 45.1612085 -8 42 C-6.47873903 40.45875531 -4.95786759 38.91712598 -3.4375 37.375 C-2.29426248 36.24736221 -1.1494713 35.12128264 0 34 C-4.35707621 28.72564459 -9.03009718 23.91531621 -13.92578125 19.13671875 C-17.33909368 15.62055699 -17.33841655 12.99037033 -17.28515625 8.2578125 C-16.85933373 4.88623144 -15.46522826 3.25979257 -13 1 C-8.5960193 -1.65587161 -4.85513326 -1.41874715 0 0 Z " fill="#E7F4FF" transform="translate(308,153)"/>
<path d="M0 0 C3.70390021 2.02666238 5.65363011 3.48044516 8 7 C9.01912707 13.79211748 7.22137873 20.44595919 5.55078125 26.984375 C5.29628708 28.00299622 5.04179291 29.02161743 4.77958679 30.07110596 C4.24114753 32.21042229 3.69709405 34.34833269 3.14770508 36.48486328 C2.31265889 39.74937883 1.50811793 43.02045273 0.70507812 46.29296875 C0.17631592 48.37807081 -0.35422243 50.46272344 -0.88671875 52.546875 C-1.24173714 54.00791656 -1.24173714 54.00791656 -1.60392761 55.49847412 C-3.07407662 61.08526874 -4.412968 64.39672624 -9 68 C-12.22859847 69.61429923 -15.50993653 69.59570657 -19 69 C-22.02508145 67.26397895 -24.41790069 65.16419863 -26 62 C-26.61127886 54.94180445 -25.50675092 48.46596215 -23.8046875 41.64453125 C-23.57476105 40.69865646 -23.34483459 39.75278168 -23.10794067 38.77824402 C-22.62129502 36.79443746 -22.12852496 34.81212403 -21.62988281 32.83129883 C-20.87569033 29.81526066 -20.15584428 26.79232765 -19.4375 23.76757812 C-18.95779702 21.83021598 -18.47609347 19.89334787 -17.9921875 17.95703125 C-17.78254364 17.0620845 -17.57289978 16.16713776 -17.35690308 15.24507141 C-15.81940974 9.31191682 -13.56313306 5.16049199 -9 1 C-5.89046621 -0.5547669 -3.43733239 -0.28644437 0 0 Z " fill="#E7F4FF" transform="translate(265,152)"/>
</svg>
